<svg xmlns="http://www.w3.org/2000/svg" width="54" height="54" viewBox="0 0 54 54" fill="none">
  <rect width="54" height="54" rx="27" fill="#E8F1FE"/>
  <path d="M26.6745 14.0027C25.4301 13.9729 24.1923 14.1923 23.0339 14.648C21.8756 15.1036 20.82 15.7863 19.9294 16.6559C19.0388 17.5255 18.331 18.5644 17.8478 19.7116C17.3646 20.8587 17.1157 22.0909 17.1157 23.3356C17.1157 24.5804 17.3646 25.8126 17.8478 26.9597C18.331 28.1069 19.0388 29.1458 19.9294 30.0154C20.82 30.885 21.8756 31.5677 23.0339 32.0233C24.1923 32.479 25.4301 32.6984 26.6745 32.6686C27.9189 32.6984 29.1567 32.479 30.315 32.0233C31.4734 31.5677 32.529 30.885 33.4196 30.0154C34.3102 29.1458 35.018 28.1069 35.5012 26.9597C35.9844 25.8126 36.2333 24.5804 36.2333 23.3356C36.2333 22.0909 35.9844 20.8587 35.5012 19.7116C35.018 18.5644 34.3102 17.5255 33.4196 16.6559C32.529 15.7863 31.4734 15.1036 30.315 14.648C29.1567 14.1923 27.9189 13.9729 26.6745 14.0027ZM21.3383 37.9995C18.8616 37.9995 16.4864 38.9833 14.7351 40.7346C12.9839 42.4859 12 44.8611 12 47.3378V54H41.349V47.3378C41.349 44.8611 40.3651 42.4859 38.6139 40.7346C36.8626 38.9833 34.4873 37.9995 32.0107 37.9995H21.3383Z" fill="#3170F2"/>
</svg>