<svg width="30" height="30" viewBox="0 0 30 30" fill="none" xmlns="http://www.w3.org/2000/svg">
<g id="solar:arrow-left-outline">
<path id="Vector" fill-rule="evenodd" clip-rule="evenodd" d="M13.1624 6.83667C13.338 7.01246 13.4366 7.25074 13.4366 7.49918C13.4366 7.74761 13.338 7.98589 13.1624 8.16168L7.26241 14.0617H24.9999C25.2485 14.0617 25.487 14.1604 25.6628 14.3363C25.8386 14.5121 25.9374 14.7505 25.9374 14.9992C25.9374 15.2478 25.8386 15.4863 25.6628 15.6621C25.487 15.8379 25.2485 15.9367 24.9999 15.9367H7.26241L13.1624 21.8367C13.2545 21.9225 13.3284 22.026 13.3796 22.141C13.4309 22.256 13.4584 22.3801 13.4606 22.506C13.4629 22.6319 13.4397 22.7569 13.3926 22.8737C13.3454 22.9904 13.2752 23.0965 13.1862 23.1855C13.0972 23.2745 12.9911 23.3447 12.8744 23.3918C12.7577 23.439 12.6326 23.4621 12.5068 23.4599C12.3809 23.4577 12.2567 23.4301 12.1417 23.3789C12.0267 23.3277 11.9232 23.2538 11.8374 23.1617L4.33741 15.6617C4.16184 15.4859 4.06323 15.2476 4.06323 14.9992C4.06323 14.7507 4.16184 14.5125 4.33741 14.3367L11.8374 6.83667C12.0132 6.66111 12.2515 6.5625 12.4999 6.5625C12.7483 6.5625 12.9866 6.66111 13.1624 6.83667Z" fill="#9E9E9E"/>
</g>
</svg>
