<svg width="40" height="40" viewBox="0 0 40 40" fill="none" xmlns="http://www.w3.org/2000/svg">
<g id="icon-park-solid:check-one">
<g id="Mask group">
<mask id="mask0_24_248" style="mask-type:luminance" maskUnits="userSpaceOnUse" x="1" y="1" width="38" height="38">
<g id="Group">
<g id="Group_2">
<path id="Vector" d="M19.9999 36.6664C22.189 36.6691 24.3571 36.2392 26.3795 35.4014C28.402 34.5637 30.239 33.3346 31.7849 31.7847C33.3348 30.2387 34.5639 28.4017 35.4017 26.3793C36.2394 24.3568 36.6693 22.1888 36.6666 19.9997C36.6693 17.8106 36.2394 15.6425 35.4017 13.6201C34.5639 11.5976 33.3348 9.76066 31.7849 8.21469C30.239 6.66482 28.402 5.4357 26.3795 4.59795C24.3571 3.7602 22.189 3.33032 19.9999 3.33302C17.8108 3.33032 15.6428 3.7602 13.6203 4.59795C11.5979 5.4357 9.76091 6.66482 8.21493 8.21469C6.66507 9.76066 5.43595 11.5976 4.59819 13.6201C3.76044 15.6425 3.33057 17.8106 3.33326 19.9997C3.33057 22.1888 3.76044 24.3568 4.59819 26.3793C5.43595 28.4017 6.66507 30.2387 8.21493 31.7847C9.76091 33.3346 11.5979 34.5637 13.6203 35.4014C15.6428 36.2392 17.8108 36.6691 19.9999 36.6664Z" fill="white" stroke="white" stroke-width="3.33333" stroke-linejoin="round"/>
<path id="Vector_2" d="M13.3333 20L18.3333 25L28.3333 15" stroke="black" stroke-width="3.33333" stroke-linecap="round" stroke-linejoin="round"/>
</g>
</g>
</mask>
<g mask="url(#mask0_24_248)">
<path id="Vector_3" d="M0 0H40V40H0V0Z" fill="#1964FF"/>
</g>
</g>
</g>
</svg>
