<svg
													width="45"
													height="45"
													viewBox="0 0 45 45"
													fill="none"
													xmlns="http://www.w3.org/2000/svg"
												>
													<path
														fill-rule="evenodd"
														clip-rule="evenodd"
														d="M19.0556 12.7778C19.0556 13.5145 18.7629 14.221 18.242 14.742C17.721 15.2629 17.0145 15.5556 16.2778 15.5556C15.5411 15.5556 14.8345 15.2629 14.3136 14.742C13.7927 14.221 13.5 13.5145 13.5 12.7778C13.5 12.0411 13.7927 11.3345 14.3136 10.8136C14.8345 10.2927 15.5411 10 16.2778 10C17.0145 10 17.721 10.2927 18.242 10.8136C18.7629 11.3345 19.0556 12.0411 19.0556 12.7778ZM16.2778 25.2778C17.0145 25.2778 17.721 24.9851 18.242 24.4642C18.7629 23.9432 19.0556 23.2367 19.0556 22.5C19.0556 21.7633 18.7629 21.0567 18.242 20.5358C17.721 20.0149 17.0145 19.7222 16.2778 19.7222C15.5411 19.7222 14.8345 20.0149 14.3136 20.5358C13.7927 21.0567 13.5 21.7633 13.5 22.5C13.5 23.2367 13.7927 23.9432 14.3136 24.4642C14.8345 24.9851 15.5411 25.2778 16.2778 25.2778ZM16.2778 35C17.0145 35 17.721 34.7073 18.242 34.1864C18.7629 33.6655 19.0556 32.9589 19.0556 32.2222C19.0556 31.4855 18.7629 30.779 18.242 30.258C17.721 29.7371 17.0145 29.4444 16.2778 29.4444C15.5411 29.4444 14.8345 29.7371 14.3136 30.258C13.7927 30.779 13.5 31.4855 13.5 32.2222C13.5 32.9589 13.7927 33.6655 14.3136 34.1864C14.8345 34.7073 15.5411 35 16.2778 35ZM31.5556 12.7778C31.5556 13.5145 31.2629 14.221 30.742 14.742C30.221 15.2629 29.5145 15.5556 28.7778 15.5556C28.0411 15.5556 27.3345 15.2629 26.8136 14.742C26.2927 14.221 26 13.5145 26 12.7778C26 12.0411 26.2927 11.3345 26.8136 10.8136C27.3345 10.2927 28.0411 10 28.7778 10C29.5145 10 30.221 10.2927 30.742 10.8136C31.2629 11.3345 31.5556 12.0411 31.5556 12.7778ZM28.7778 25.2778C29.5145 25.2778 30.221 24.9851 30.742 24.4642C31.2629 23.9432 31.5556 23.2367 31.5556 22.5C31.5556 21.7633 31.2629 21.0567 30.742 20.5358C30.221 20.0149 29.5145 19.7222 28.7778 19.7222C28.0411 19.7222 27.3345 20.0149 26.8136 20.5358C26.2927 21.0567 26 21.7633 26 22.5C26 23.2367 26.2927 23.9432 26.8136 24.4642C27.3345 24.9851 28.0411 25.2778 28.7778 25.2778ZM28.7778 35C29.5145 35 30.221 34.7073 30.742 34.1864C31.2629 33.6655 31.5556 32.9589 31.5556 32.2222C31.5556 31.4855 31.2629 30.779 30.742 30.258C30.221 29.7371 29.5145 29.4444 28.7778 29.4444C28.0411 29.4444 27.3345 29.7371 26.8136 30.258C26.2927 30.779 26 31.4855 26 32.2222C26 32.9589 26.2927 33.6655 26.8136 34.1864C27.3345 34.7073 28.0411 35 28.7778 35Z"
														fill="#9B9B9B"
													/>
												</svg>