<svg xmlns="http://www.w3.org/2000/svg" width="25" height="24" viewBox="0 0 25 24" fill="none">
  <g clip-path="url(#clip0_65_1343)">
    <path d="M10.25 6.66016V7.92766H24.4869C24.467 7.51891 24.4242 7.00216 24.2712 6.66016" fill="#EC1C24"/>
    <path d="M23.6 5.39062H10.25V6.65813H24.2712C24.119 6.18525 23.8925 5.754 23.6 5.39062Z" fill="#E6E7E8"/>
    <path d="M20.75 4.125H10.25V5.3925H23.6C22.9741 4.60875 21.944 4.125 20.75 4.125Z" fill="#EC1C24"/>
    <path d="M24.4869 7.92578H10.25V9.19328H24.5V8.34841C24.5 8.27303 24.4951 8.19953 24.4929 8.12566C24.4914 8.10541 24.4891 8.05328 24.4869 7.92578Z" fill="#E6E7E8"/>
    <path d="M10.25 10.4628H24.5V9.19531H10.25V10.4628Z" fill="#EC1C24"/>
    <path d="M10.25 11.7284H24.5V10.4609H10.25V11.7284Z" fill="#E6E7E8"/>
    <path d="M10.25 11.7305H24.5V12.998H10.25V11.7305Z" fill="#EC1C24"/>
    <path d="M0.5 12.9961V14.2636H24.5V12.9961H10.25H0.5Z" fill="#E6E7E8"/>
    <path d="M0.5 14.2656H24.5V15.5331H0.5V14.2656Z" fill="#EC1C24"/>
    <path d="M0.501875 16.3109C0.501875 16.3109 0.4985 16.618 0.5075 16.7988H24.4925C24.503 16.6135 24.4981 16.3109 24.4981 16.3109L24.5 15.5312H0.5L0.501875 16.3109Z" fill="#E6E7E8"/>
    <path d="M4.25003 20.6259H20.75C21.9474 20.6259 22.9427 20.1909 23.6225 19.3359H1.37378C2.07578 20.2097 3.08978 20.6259 4.24815 20.6259" fill="#EC1C24"/>
    <path d="M1.37556 19.3339H23.6243C23.9209 18.957 24.1424 18.5267 24.2768 18.0664H0.726807C0.864014 18.5253 1.08457 18.9549 1.37743 19.3339" fill="#E6E7E8"/>
    <path d="M0.725068 18.0683H24.2751C24.3978 17.656 24.4708 17.2304 24.4926 16.8008H0.507568C0.544693 17.2343 0.579193 17.5617 0.725068 18.0683Z" fill="#EC1C24"/>
    <path d="M10.25 4.125H4.25C1.76488 4.125 0.5 5.97188 0.5 8.25V12.9975H10.25V4.125Z" fill="#176496"/>
    <path d="M1.54927 6.36628L1.75327 6.20953L1.9569 6.36628L1.87777 6.11428L2.08065 5.96016H1.83015L1.75252 5.70703L1.67527 5.96016H1.42515L1.62877 6.11428L1.54927 6.36628ZM2.89702 6.36628L3.10102 6.20953L3.30465 6.36628L3.2259 6.11428L3.4284 5.96016H3.17827L3.10065 5.70703L3.0234 5.96016H2.77252L2.97615 6.11428L2.89702 6.36628ZM4.3839 6.36628L4.58752 6.20953L4.79152 6.36628L4.7124 6.11428L4.9149 5.96016H4.66627L4.58752 5.70703L4.5099 5.96016H4.26127L4.46265 6.11428L4.3839 6.36628ZM5.8599 6.36628L6.06352 6.20953L6.26752 6.36628L6.18877 6.11428L6.39127 5.96016H6.14002L6.06352 5.70703L5.98627 5.96016H5.73577L5.93902 6.11428L5.8599 6.36628ZM7.34115 6.36628L7.54515 6.20953L7.74877 6.36628L7.67002 6.11428L7.8729 5.96016H7.62202L7.54477 5.70703L7.46752 5.96016H7.2174L7.4199 6.11428L7.34115 6.36628ZM2.26665 7.02441L2.47027 6.86803L2.6739 7.02441L2.59552 6.77278L2.79802 6.61866H2.54752L2.4699 6.36591L2.39377 6.61866H2.14252L2.3454 6.77278L2.26665 7.02441ZM3.61477 7.02441L3.8184 6.86803L4.02202 7.02441L3.94327 6.77278L4.14577 6.61866H3.89377L3.8184 6.36591L3.74077 6.61866H3.49065L3.69352 6.77278L3.61477 7.02441ZM5.10165 7.02441L5.3049 6.86803L5.50852 7.02441L5.42977 6.77278L5.63265 6.61866H5.38252L5.3049 6.36591L5.22727 6.61866H4.97677L5.17965 6.77278L5.10165 7.02441ZM6.5769 7.02441L6.7809 6.86803L6.9849 7.02441L6.90502 6.77278L7.10827 6.61866H6.85815L6.78052 6.36591L6.70365 6.61866H6.45315L6.65602 6.77278L6.5769 7.02441ZM8.06002 7.02441L8.26215 6.86803L8.46577 7.02441L8.38627 6.77278L8.58952 6.61866H8.33977L8.26177 6.36591L8.1849 6.61866H7.9344L8.13727 6.77278L8.06002 7.02441ZM8.89515 6.36628L9.09877 6.20953L9.30277 6.36628L9.22365 6.11428L9.42615 5.96016H9.17752L9.0984 5.70703L9.02115 5.96016H8.76877L8.9739 6.11428L8.89515 6.36628ZM1.5294 11.6328L1.7334 11.4779L1.93702 11.6328L1.85827 11.383L2.06077 11.2285L1.81065 11.2293L1.73265 10.9765L1.65615 11.2293L1.40527 11.2285L1.60815 11.383L1.5294 11.6328ZM2.87752 11.6328L3.08115 11.4779L3.28515 11.6328L3.20602 11.383L3.40852 11.2285L3.15877 11.2293L3.08077 10.9765L3.0039 11.2293L2.75377 11.2285L2.95627 11.383L2.87752 11.6328ZM4.3644 11.6328L4.56802 11.4779L4.77202 11.6328L4.6929 11.383L4.8954 11.2285L4.64377 11.2293L4.56765 10.9765L4.4904 11.2293L4.24027 11.2285L4.44315 11.383L4.3644 11.6328ZM5.8404 11.6328L6.04402 11.4779L6.24765 11.6328L6.17002 11.383L6.3714 11.2285L6.1209 11.2293L6.04365 10.9765L5.9664 11.2293L5.71627 11.2285L5.91877 11.383L5.8404 11.6328ZM7.32127 11.6328L7.52527 11.4779L7.72927 11.6328L7.65127 11.383L7.85265 11.2285L7.60252 11.2293L7.5249 10.9765L7.44802 11.2293L7.19752 11.2285L7.40002 11.383L7.32127 11.6328ZM8.87527 11.6328L9.0789 11.4779L9.2829 11.6328L9.20377 11.383L9.40665 11.2285L9.15502 11.2293L9.07852 10.9765L9.00127 11.2293L8.75002 11.2285L8.95402 11.383L8.87527 11.6328ZM1.54927 7.68328L1.75327 7.52653L1.9569 7.68328L1.87777 7.43128L2.08065 7.27716L1.83015 7.27791L1.75252 7.02441L1.67527 7.27791L1.42515 7.27716L1.62877 7.43128L1.54927 7.68328ZM2.89702 7.68328L3.10102 7.52653L3.30465 7.68328L3.2259 7.43128L3.4284 7.27716L3.17827 7.27791L3.10065 7.02441L3.0234 7.27791L2.77252 7.27716L2.97615 7.43128L2.89702 7.68328ZM4.3839 7.68328L4.58752 7.52653L4.79152 7.68328L4.7124 7.43128L4.9149 7.27716L4.66627 7.27791L4.58752 7.02441L4.5099 7.27791L4.26127 7.27716L4.46265 7.43128L4.3839 7.68328ZM5.8599 7.68328L6.06352 7.52653L6.26752 7.68328L6.18877 7.43128L6.39127 7.27716L6.14002 7.27791L6.06352 7.02441L5.98627 7.27791L5.73577 7.27716L5.93902 7.43128L5.8599 7.68328ZM7.34115 7.68328L7.54515 7.52653L7.74877 7.68328L7.67002 7.43128L7.8729 7.27716L7.62202 7.27791L7.54477 7.02441L7.46752 7.27791L7.2174 7.27716L7.4199 7.43128L7.34115 7.68328ZM2.26665 8.34178L2.47027 8.18541L2.6739 8.34178L2.59552 8.09016L2.79802 7.93528H2.54752L2.4699 7.68328L2.39377 7.93528H2.14252L2.3454 8.09016L2.26665 8.34178ZM3.61477 8.34178L3.8184 8.18541L4.02202 8.34178L3.94327 8.09016L4.14577 7.93528H3.89377L3.8184 7.68328L3.74077 7.93528H3.49065L3.69352 8.09016L3.61477 8.34178ZM5.10165 8.34178L5.3049 8.18541L5.50852 8.34178L5.42977 8.09016L5.63265 7.93528H5.38252L5.3049 7.68328L5.22727 7.93528H4.97677L5.17965 8.09016L5.10165 8.34178ZM6.5769 8.34178L6.7809 8.18541L6.9849 8.34178L6.90502 8.09016L7.10827 7.93528H6.85815L6.78052 7.68328L6.70365 7.93528H6.45315L6.65602 8.09016L6.5769 8.34178ZM8.06002 8.34178L8.26215 8.18541L8.46577 8.34178L8.38627 8.09016L8.58952 7.93528H8.33977L8.26177 7.68328L8.1849 7.93528H7.9344L8.13727 8.09016L8.06002 8.34178ZM8.89515 7.68328L9.09877 7.52653L9.30277 7.68328L9.22365 7.43128L9.42615 7.27716L9.17752 7.27791L9.0984 7.02441L9.02115 7.27791L8.76877 7.27716L8.9739 7.43128L8.89515 7.68328ZM1.5294 9.00028L1.7334 8.84391L1.93702 9.00028L1.8579 8.74903L2.06077 8.59453L1.81027 8.59528L1.73265 8.34178L1.65615 8.59528L1.40527 8.59453L1.60815 8.74903L1.5294 9.00028ZM2.87752 9.00028L3.08115 8.84391L3.28515 9.00028L3.20602 8.74903L3.40852 8.59453L3.15877 8.59528L3.08077 8.34178L3.0039 8.59528L2.75377 8.59453L2.9559 8.74903L2.87752 9.00028ZM4.3644 9.00028L4.56802 8.84391L4.77165 9.00028L4.6929 8.74903L4.8954 8.59453L4.64377 8.59528L4.56765 8.34178L4.4904 8.59528L4.24027 8.59453L4.44315 8.74903L4.3644 9.00028ZM5.8404 9.00028L6.04365 8.84391L6.24765 9.00028L6.17002 8.74903L6.3714 8.59453L6.1209 8.59528L6.04365 8.34178L5.9664 8.59528L5.71627 8.59453L5.91877 8.74903L5.8404 9.00028ZM7.32127 9.00028L7.52527 8.84391L7.7289 9.00028L7.65127 8.74903L7.85265 8.59453L7.60215 8.59528L7.5249 8.34178L7.44802 8.59528L7.19752 8.59453L7.40002 8.74903L7.32127 9.00028ZM2.24677 9.65878L2.4504 9.50278L2.65402 9.65878L2.57565 9.40903L2.77777 9.25378H2.52727L2.45002 9.00028L2.37315 9.25378H2.12265L2.32552 9.40903L2.24677 9.65878ZM3.5949 9.65878L3.79852 9.50278L4.00215 9.65878L3.9234 9.40903L4.1259 9.25378H3.87502L3.79815 9.00028L3.7209 9.25378H3.4704L3.67365 9.40903L3.5949 9.65878ZM5.08215 9.65878L5.28502 9.50278L5.48902 9.65878L5.40877 9.40903L5.61277 9.25378H5.36265L5.28502 9.00028L5.20777 9.25378H4.95727L5.16015 9.40903L5.08215 9.65878ZM6.55627 9.65878L6.76102 9.50278L6.96502 9.65878L6.88627 9.40903L7.0884 9.25378H6.83827L6.76065 9.00028L6.68377 9.25378H6.43327L6.63615 9.40903L6.55627 9.65878ZM8.03752 9.65878L8.24227 9.50278L8.44627 9.65878L8.36715 9.40903L8.5704 9.25378H8.32027L8.24227 9.00028L8.16502 9.25378H7.91452L8.1174 9.40903L8.03752 9.65878ZM8.87527 9.00028L9.0789 8.84391L9.28252 9.00028L9.20377 8.74903L9.40665 8.59453L9.15502 8.59528L9.07852 8.34178L9.00127 8.59528L8.75002 8.59453L8.95402 8.74903L8.87527 9.00028ZM1.5294 10.3177L1.7334 10.1628L1.93702 10.3177L1.8579 10.066L2.06077 9.91153L1.81027 9.91228L1.73265 9.65878L1.65615 9.91228L1.40527 9.91153L1.60815 10.066L1.5294 10.3177ZM2.87752 10.3177L3.08115 10.1628L3.28515 10.3177L3.20602 10.066L3.40852 9.91153L3.15877 9.91228L3.08077 9.65878L3.0039 9.91228L2.75377 9.91153L2.9559 10.066L2.87752 10.3177ZM4.3644 10.3177L4.56802 10.1628L4.77165 10.3177L4.6929 10.066L4.8954 9.91153L4.64377 9.91228L4.56765 9.65878L4.4904 9.91228L4.24027 9.91153L4.44315 10.066L4.3644 10.3177ZM5.8404 10.3177L6.04365 10.1628L6.24765 10.3177L6.17002 10.066L6.3714 9.91153L6.1209 9.91228L6.04365 9.65878L5.9664 9.91228L5.71627 9.91153L5.91877 10.066L5.8404 10.3177ZM7.32127 10.3177L7.52527 10.1628L7.7289 10.3177L7.65127 10.066L7.85265 9.91153L7.60215 9.91228L7.5249 9.65878L7.44802 9.91228L7.19752 9.91153L7.40002 10.066L7.32127 10.3177ZM2.24677 10.9765L2.4504 10.8198L2.65402 10.9765L2.57565 10.7245L2.77777 10.5715H2.52727L2.45002 10.3177L2.37315 10.5715H2.12265L2.32552 10.7245L2.24677 10.9765ZM3.5949 10.9765L3.79852 10.8198L4.00215 10.9765L3.9234 10.7245L4.1259 10.5715H3.87502L3.79815 10.3177L3.7209 10.5715H3.4704L3.67365 10.7245L3.5949 10.9765ZM5.08215 10.9765L5.28502 10.8198L5.48902 10.9765L5.40877 10.7245L5.61277 10.5715H5.36265L5.28502 10.3177L5.20777 10.5715H4.95727L5.16015 10.7245L5.08215 10.9765ZM6.55627 10.9765L6.76102 10.8198L6.96502 10.9765L6.88627 10.7245L7.0884 10.5715H6.83827L6.76065 10.3177L6.68377 10.5715H6.43327L6.63615 10.7245L6.55627 10.9765ZM8.03752 10.9765L8.24227 10.8198L8.44627 10.9765L8.36715 10.7245L8.5704 10.5715H8.32027L8.24227 10.3177L8.16502 10.5715H7.91452L8.1174 10.7245L8.03752 10.9765ZM8.87527 10.3177L9.0789 10.1628L9.28252 10.3177L9.20377 10.066L9.40665 9.91153L9.15502 9.91228L9.07852 9.65878L9.00127 9.91228L8.75002 9.91153L8.95402 10.066L8.87527 10.3177Z" fill="white"/>
  </g>
  <defs>
    <clipPath id="clip0_65_1343">
      <rect width="24" height="24" fill="white" transform="translate(0.5)"/>
    </clipPath>
  </defs>
</svg>