<svg width="20" height="20" viewBox="0 0 20 20" fill="none" xmlns="http://www.w3.org/2000/svg">
<rect width="20" height="20" rx="10" fill="#3C64ED"/>
<path d="M15.8759 9.37459H13.4132C13.3696 9.36882 13.3255 9.36882 13.2819 9.37459H13.1757C13.1426 9.39256 13.1112 9.41348 13.0819 9.43709C13.0474 9.46041 13.014 9.48544 12.9819 9.5121C12.961 9.53766 12.9422 9.56483 12.9257 9.59335C12.897 9.63269 12.8719 9.67453 12.8506 9.71836L11.8506 12.4748L9.24414 5.4118C9.20034 5.29113 9.12045 5.18688 9.01533 5.1132C8.91021 5.03952 8.78496 5 8.65659 5C8.52822 5 8.40297 5.03952 8.29785 5.1132C8.19273 5.18688 8.11284 5.29113 8.06905 5.4118L6.62519 9.37459H4.62505C4.45927 9.37459 4.30029 9.44044 4.18307 9.55766C4.06585 9.67488 4 9.83386 4 9.99963C4 10.1654 4.06585 10.3244 4.18307 10.4416C4.30029 10.5588 4.45927 10.6247 4.62505 10.6247H7.31274C7.34797 10.607 7.38146 10.5861 7.41275 10.5622C7.44732 10.5389 7.48069 10.5138 7.51276 10.4872L7.56901 10.4059C7.5988 10.3673 7.62398 10.3254 7.64402 10.2809L8.65659 7.44945L11.2568 14.5875C11.3005 14.7083 11.3803 14.8127 11.4854 14.8865C11.5906 14.9603 11.7159 14.9999 11.8443 15C11.9728 14.9999 12.0981 14.9603 12.2032 14.8865C12.3084 14.8127 12.3882 14.7083 12.4319 14.5875L13.8695 10.6247H15.8759C16.0416 10.6247 16.2006 10.5588 16.3178 10.4416C16.4351 10.3244 16.5009 10.1654 16.5009 9.99963C16.5009 9.83386 16.4351 9.67488 16.3178 9.55766C16.2006 9.44044 16.0416 9.37459 15.8759 9.37459Z" fill="white"/>
</svg>
