<svg width="22" height="21" viewBox="0 0 22 21" fill="none" xmlns="http://www.w3.org/2000/svg">
<path d="M8.46859 4.767C8.99184 3.23575 11.1076 3.18938 11.728 4.62788L11.7805 4.76787L12.4866 6.83287C12.6484 7.30645 12.9099 7.73982 13.2535 8.10374C13.597 8.46767 14.0146 8.75368 14.4781 8.9425L14.668 9.01337L16.733 9.71862C18.2642 10.2419 18.3106 12.3576 16.873 12.978L16.733 13.0305L14.668 13.7366C14.1942 13.8983 13.7607 14.1598 13.3966 14.5034C13.0325 14.8469 12.7464 15.2646 12.5575 15.7281L12.4866 15.9171L11.7813 17.983C11.2581 19.5142 9.14234 19.5606 8.52284 18.123L8.46859 17.983L7.76334 15.918C7.60163 15.4443 7.34017 15.0107 6.99662 14.6466C6.65307 14.2826 6.23541 13.9964 5.77184 13.8075L5.58284 13.7366L3.51784 13.0314C1.98572 12.5081 1.93934 10.3924 3.37784 9.77287L3.51784 9.71862L5.58284 9.01337C6.05642 8.85155 6.48979 8.59004 6.85371 8.2465C7.21764 7.90295 7.50365 7.48535 7.69247 7.02187L7.76334 6.83287L8.46859 4.767ZM17.125 1.75C17.2887 1.75 17.4491 1.79592 17.588 1.88254C17.7269 1.96916 17.8387 2.093 17.9107 2.24L17.9527 2.34238L18.259 3.24013L19.1576 3.54638C19.3216 3.60211 19.4654 3.70529 19.5708 3.84284C19.6761 3.98039 19.7383 4.14612 19.7493 4.31902C19.7604 4.49192 19.7199 4.66421 19.6329 4.81406C19.5459 4.96391 19.4165 5.08457 19.2608 5.16075L19.1576 5.20275L18.2598 5.509L17.9536 6.40762C17.8978 6.57162 17.7945 6.71536 17.6569 6.82062C17.5193 6.92588 17.3535 6.98792 17.1807 6.99888C17.0078 7.00985 16.8355 6.96924 16.6857 6.88221C16.5359 6.79517 16.4153 6.66563 16.3392 6.51L16.2972 6.40762L15.991 5.50987L15.0923 5.20362C14.9283 5.14789 14.7845 5.04471 14.6791 4.90716C14.5738 4.76961 14.5117 4.60388 14.5006 4.43098C14.4895 4.25808 14.5301 4.08579 14.617 3.93594C14.704 3.78609 14.8335 3.66543 14.9891 3.58925L15.0923 3.54725L15.9901 3.241L16.2963 2.34238C16.3553 2.1695 16.467 2.01942 16.6156 1.91319C16.7642 1.80695 16.9423 1.74989 17.125 1.75Z" fill="#FD5B01"/>
</svg>
