<svg xmlns="http://www.w3.org/2000/svg" width="12" height="16" viewBox="0 0 12 16" fill="none">
  <g clip-path="url(#clip0_36_1614)">
    <path d="M6.75 0.745645C6.75 0.00189489 5.79219 -0.278418 5.37031 0.338145C1.5 5.99533 7 6.25002 7 9.00002C7 10.1135 6.09031 11.0144 4.97344 10.9997C3.87437 10.9856 3 10.0694 3 8.97033V6.29814C3 5.62002 2.17281 5.29096 1.70531 5.78252C0.86875 6.66127 0 8.16658 0 10C0 13.3085 2.69156 16 6 16C9.30844 16 12 13.3085 12 10C12 4.67846 6.75 3.96877 6.75 0.745645Z" fill="#C17C4F"/>
  </g>
  <defs>
    <clipPath id="clip0_36_1614">
      <rect width="12" height="16" fill="white"/>
    </clipPath>
  </defs>
</svg>