<svg width="60" height="60" viewBox="0 0 60 60" fill="none" xmlns="http://www.w3.org/2000/svg">
<path d="M55 30C55 20.5725 55 15.8575 52.07 12.93C49.14 10.0025 44.4275 10 35 10H25C15.5725 10 10.8575 10 7.93 12.93C5.0025 15.86 5 20.5725 5 30C5 39.4275 5 44.1425 7.93 47.07C10.86 49.9975 15.5725 50 25 50H35C44.4275 50 49.1425 50 52.07 47.07C53.705 45.4375 54.4275 43.25 54.745 40M25 40H15M35 40H31.25M5 25H17.5M55 25H27.5" stroke="#E0E0E0" stroke-width="2" stroke-linecap="round"/>
<path d="M52 44C47.5429 44 44 47.5429 44 52C44 56.4571 47.5429 60 52 60C56.4571 60 60 56.4571 60 52C60 47.5429 56.4571 44 52 44ZM55.0857 56L52 52.9143L48.9143 56L48 55.0857L51.0857 52L48 48.9143L48.9143 48L52 51.0857L55.0857 48L56 48.9143L52.9143 52L56 55.0857L55.0857 56Z" fill="#F45B61"/>
</svg>
