<svg xmlns="http://www.w3.org/2000/svg" width="70" height="71" viewBox="0 0 70 71" fill="none">
  <path d="M66.668 29.7949H67.7891V42.802H66.668V29.7949Z" fill="#FFC077"/>
  <path d="M36.4409 44.1108L36.0832 43.7457C34.294 43.6057 31.5752 42.8875 29.8532 40.7613C29.7526 40.6374 29.6603 40.5069 29.5771 40.3707C29.4227 40.1223 29.3142 39.8482 29.2565 39.5615C28.9639 38.0274 30.5497 36.9109 31.2966 36.7282C32.2364 36.5011 33.8534 36.7965 34.5051 36.9347C34.6836 36.9732 34.7903 36.9984 34.7903 36.9984C34.9068 37.0074 35.0238 37.0074 35.1403 36.9984C35.2204 36.9938 35.3065 36.9878 35.3986 36.9806C35.4284 36.9806 35.4581 36.9778 35.4893 36.9746C35.5071 36.9746 35.5243 36.9746 35.5428 36.9718C35.8974 36.947 36.2534 36.9514 36.6072 36.9851C36.7083 36.9956 36.8137 37.0103 36.9222 37.0282C37.0702 37.0541 37.2168 37.0874 37.3614 37.1279C37.4374 37.1486 37.513 37.171 37.5886 37.1962C37.592 37.1977 37.5955 37.1987 37.5991 37.1993C37.6341 37.2109 37.6691 37.2228 37.7041 37.2364V37.2347C38.2486 37.4363 38.7532 37.7326 39.1947 38.1097C39.606 38.4572 40.0589 38.8195 40.5296 39.1803C41.1623 39.6648 41.8089 40.1307 42.4686 40.5775C42.4686 40.5775 42.7035 40.6223 43.0538 40.6668L43.0584 40.6297V36.3086H51.6435C53.0435 39.2836 55.237 44.6816 56.7917 49.0115C58.4087 53.5135 63.6055 61.377 64.6597 64.0051C65.9144 67.1292 65.9144 68.8701 65.9144 68.8701H47.4495C47.4577 68.1834 47.385 67.498 47.2328 66.8282L47.9055 63.8182C47.383 63.8315 46.5601 63.8182 46.5601 63.8182V63.821C46.4653 63.8004 45.9945 63.6831 44.0751 63.1826C41.147 62.4193 34.7977 54.4739 34.7977 54.4739C34.1565 54.174 33.0323 52.7726 32.3669 51.892C32.0352 51.4529 31.8331 50.9298 31.7835 50.3817H31.773C31.773 50.3817 28.4368 49.9967 26.6444 49.4255C26.6444 49.4255 23.7891 48.6772 22.9932 48.3342C22.9932 48.3342 18.0043 46.4827 16.7436 45.7537C15.4829 45.0246 16.0786 41.9688 18.6025 42.6992C19.5603 42.9765 20.5128 43.2716 21.4595 43.5844C22.028 43.993 22.7107 44.2122 23.4108 44.2109H27.1029C27.1029 44.2109 31.4058 45.1478 32.215 45.3274L32.32 45.3333C32.4053 44.9426 32.5426 44.5651 32.7281 44.2109H36.366L36.4409 44.1108Z" fill="#FFC077"/>
  <path d="M64.8921 33.9543C64.9026 33.9396 64.9127 33.9249 64.9232 33.9113C64.8857 34.2833 64.7454 34.6375 64.518 34.9343C64.3645 35.1542 64.1437 35.3183 63.8888 35.4017C63.6339 35.4851 63.3588 35.4833 63.105 35.3967L62.23 36.5072L61.25 35.263L62.125 34.1524C62.0517 33.8452 62.0462 33.5257 62.109 33.2161C62.1718 32.9065 62.3014 32.6144 62.4887 32.3601C62.6853 32.0953 62.9731 31.9128 63.2964 31.8477C63.2835 31.8594 63.2718 31.8724 63.2614 31.8865C63.0421 32.1867 62.9238 32.5488 62.9238 32.9206C62.9238 33.2924 63.0421 33.6545 63.2614 33.9547C63.3528 34.0863 63.4747 34.1939 63.6167 34.2682C63.7587 34.3425 63.9166 34.3813 64.0769 34.3812C64.2371 34.3812 64.395 34.3423 64.537 34.268C64.6789 34.1936 64.8008 34.086 64.8921 33.9543Z" fill="#69D6F9"/>
  <path d="M64.1081 38.4476C64.2875 38.6925 64.3842 38.9881 64.3842 39.2916C64.3842 39.5952 64.2875 39.8908 64.1081 40.1357C64.0335 40.2432 63.9339 40.3311 63.8179 40.3918C63.7019 40.4525 63.573 40.4843 63.4421 40.4843C63.3111 40.4843 63.1822 40.4525 63.0662 40.3918C62.9502 40.3311 62.8506 40.2432 62.776 40.1357C62.5976 39.8975 62.5013 39.6079 62.5016 39.3104L62.4897 39.3265L61.2469 37.7515L60.2669 36.5072L59.3919 35.3967C59.1378 35.4837 58.8623 35.4857 58.6071 35.4023C58.3518 35.319 58.1305 35.1548 57.9768 34.9347C57.7503 34.6375 57.6105 34.2834 57.5729 33.9116C57.5831 33.9253 57.5922 33.94 57.6041 33.9547C57.6952 34.0866 57.817 34.1944 57.959 34.2688C58.101 34.3433 58.2589 34.3822 58.4192 34.3822C58.5795 34.3822 58.7375 34.3433 58.8794 34.2688C59.0214 34.1944 59.1432 34.0866 59.2344 33.9547C59.4541 33.6547 59.5726 33.2925 59.5726 32.9206C59.5726 32.5487 59.4541 32.1865 59.2344 31.8865C59.2242 31.873 59.2133 31.86 59.2018 31.8477C59.5243 31.913 59.8111 32.0956 60.0068 32.3601C60.1944 32.6143 60.3243 32.9063 60.3874 33.2159C60.4505 33.5255 60.4453 33.8451 60.3722 34.1524L61.2472 35.263L62.2272 36.5072L63.4687 38.0822L63.4568 38.0987C63.5846 38.1041 63.7095 38.1382 63.8223 38.1987C63.9351 38.2591 64.0328 38.3442 64.1081 38.4476Z" fill="#69D6F9"/>
  <path d="M60.2654 36.5059L61.2468 37.7501L60.7999 38.3175L60.2654 36.5059Z" fill="#0400BF"/>
  <path d="M60.2654 36.5059L60.7999 38.3175L60.004 39.3255L59.9907 39.3094C59.9913 39.6071 59.8949 39.897 59.7159 40.135C59.6413 40.2425 59.5417 40.3303 59.4257 40.391C59.3097 40.4517 59.1808 40.4833 59.0499 40.4833C58.919 40.4833 58.7901 40.4517 58.6741 40.391C58.5581 40.3303 58.4585 40.2425 58.3838 40.135C58.2054 39.8897 58.1093 39.5942 58.1093 39.2908C58.1093 38.9875 58.2054 38.6919 58.3838 38.4466C58.4594 38.3432 58.5572 38.258 58.6701 38.1974C58.7829 38.1369 58.9079 38.1024 59.0359 38.0966L59.0226 38.0802L60.2654 36.5059Z" fill="#69D6F9"/>
  <path d="M59.0194 3.2168H60.0887V15.6257H59.0194V3.2168Z" fill="#FFC077"/>
  <path d="M55.1068 9.22281C55.1762 9.30086 55.2204 9.39803 55.2337 9.50162C55.247 9.60521 55.2288 9.71041 55.1813 9.80346L55.1086 9.93716L54.4435 11.165C54.5125 11.3177 54.5533 11.4817 54.564 11.649C54.6025 12.2402 54.2773 12.7421 53.8391 12.769C53.4009 12.796 53.0138 12.3417 52.9749 11.7505C52.9361 11.1594 53.2616 10.6578 53.6998 10.6305C53.7809 10.6249 53.8622 10.636 53.9388 10.6631L54.5339 9.56756L54.6791 9.29876C54.6954 9.25854 54.7217 9.22313 54.7554 9.19582C54.7891 9.16851 54.8292 9.15021 54.872 9.14262C54.9147 9.13504 54.9587 9.13841 54.9997 9.15243C55.0408 9.16646 55.0776 9.19067 55.1068 9.22281Z" fill="#69D6F9"/>
  <path d="M51.6442 36.309H43.0591V20.4512C43.0591 20.4512 44.3226 20.8386 45.9382 23.6092C47.5538 26.3798 50.0955 33.0781 51.4811 35.9642C51.5343 36.0745 51.59 36.1886 51.6442 36.309Z" fill="#FFC077"/>
  <path d="M46.578 63.8243L46.5602 63.8184C46.5602 63.8184 47.383 63.8317 47.9055 63.8184L47.2328 66.8284C46.9714 65.4224 46.5794 63.8901 46.5615 63.8201C46.5669 63.8219 46.5724 63.8233 46.578 63.8243Z" fill="#0400BF"/>
  <path d="M43.0591 36.3086V40.6265L43.0545 40.6636C42.7045 40.6192 42.4693 40.5744 42.4693 40.5744C41.8095 40.1277 41.1629 39.6617 40.5303 39.1772L40.551 39.1506C40.6551 38.9054 40.7087 38.6417 40.7085 38.3753V36.3103L43.0591 36.3086Z" fill="#69D6F9"/>
  <path d="M40.7085 11.3633V9.22829C40.7085 8.69919 40.4983 8.19175 40.1242 7.81762C39.75 7.44348 39.2426 7.23329 38.7135 7.23329H26.88C26.3509 7.23329 25.8435 7.44348 25.4693 7.81762C25.0952 8.19175 24.885 8.69919 24.885 9.22829V13.5784C24.885 13.8404 24.9366 14.0999 25.0369 14.3419C25.1371 14.5839 25.2841 14.8039 25.4693 14.9891C25.6546 15.1744 25.8745 15.3213 26.1165 15.4216C26.3586 15.5218 26.618 15.5734 26.88 15.5734H38.7125C38.9744 15.5734 39.2339 15.5218 39.4759 15.4216C39.7179 15.3213 39.9379 15.1744 40.1231 14.9891C40.3084 14.8039 40.4553 14.5839 40.5556 14.3419C40.6558 14.0999 40.7075 13.8404 40.7075 13.5784L40.7085 11.3633ZM22.19 24.1327V5.95404C22.1901 5.00388 22.5676 4.09264 23.2394 3.42074C23.9112 2.74884 24.8224 2.37128 25.7726 2.37109H26.2017C26.2017 3.08697 26.4861 3.77352 26.9923 4.27972C27.4985 4.78591 28.185 5.07029 28.9009 5.07029H35.6157C36.3315 5.06992 37.018 4.78547 37.5244 4.27939C38.0307 3.77331 38.3155 3.08698 38.3163 2.37109H39.4748C39.9454 2.37096 40.4114 2.46353 40.8463 2.64352C41.2811 2.82352 41.6762 3.08741 42.0091 3.42012C42.3419 3.75284 42.606 4.14787 42.7861 4.58264C42.9663 5.01741 43.0591 5.48342 43.0591 5.95404V36.3085H40.7085V34.0261C40.7085 33.497 40.4983 32.9896 40.1242 32.6155C39.75 32.2413 39.2426 32.0311 38.7135 32.0311H26.88C26.3509 32.0311 25.8435 32.2413 25.4693 32.6155C25.0952 32.9896 24.885 33.497 24.885 34.0261V38.3752C24.885 38.9043 25.0952 39.4118 25.4693 39.7859C25.8435 40.1601 26.3509 40.3702 26.88 40.3702H29.5782C29.6614 40.5065 29.7536 40.637 29.8543 40.7608C31.5753 42.8871 34.2941 43.6042 36.0843 43.7453L36.442 44.1103L36.3678 44.2115H25.7726C24.8222 44.2109 23.9109 43.833 23.2391 43.1607C22.5673 42.4884 22.1899 41.5769 22.19 40.6264V24.1327ZM24.8878 24.1327V25.9768C24.8878 26.5059 25.098 27.0134 25.4721 27.3875C25.8463 27.7617 26.3537 27.9718 26.8828 27.9718H38.7153C39.2444 27.9718 39.7518 27.7617 40.1259 27.3875C40.5001 27.0134 40.7103 26.5059 40.7103 25.9768V21.6277C40.7103 21.0986 40.5001 20.5912 40.1259 20.2171C39.7518 19.8429 39.2444 19.6327 38.7153 19.6327H26.88C26.3509 19.6327 25.8435 19.8429 25.4693 20.2171C25.0952 20.5912 24.885 21.0986 24.885 21.6277L24.8878 24.1327Z" fill="#69D6F9"/>
  <path d="M40.7085 36.3086V38.3736C40.7087 38.64 40.6551 38.9037 40.551 39.1488L40.5303 39.1755C40.077 38.8291 39.6319 38.4721 39.1954 38.1048C38.7539 37.7277 38.2493 37.4315 37.7048 37.2298C37.8402 36.9948 37.9198 36.7319 37.9373 36.4612C37.9549 36.1906 37.91 35.9195 37.806 35.669C37.7021 35.4185 37.542 35.1953 37.338 35.0166C37.134 34.8378 36.8917 34.7084 36.6297 34.6383C36.3677 34.5682 36.0931 34.5593 35.8271 34.6122C35.5612 34.6652 35.3109 34.7786 35.0958 34.9437C34.8806 35.1088 34.7063 35.3212 34.5864 35.5644C34.4664 35.8076 34.404 36.0752 34.4039 36.3464C34.4041 36.5463 34.4387 36.7448 34.5061 36.933C33.8544 36.7948 32.2374 36.4994 31.2977 36.7265C30.5508 36.9092 28.9649 38.0257 29.2575 39.5598C29.3152 39.8465 29.4238 40.1205 29.5781 40.3689H26.88C26.3509 40.3689 25.8434 40.1588 25.4693 39.7846C25.0952 39.4105 24.885 38.9031 24.885 38.374V34.0263C24.885 33.4971 25.0952 32.9897 25.4693 32.6156C25.8434 32.2414 26.3509 32.0312 26.88 32.0312H38.7124C39.2415 32.0312 39.749 32.2414 40.1231 32.6156C40.4972 32.9897 40.7074 33.4971 40.7074 34.0263V36.3086H40.7085Z" fill="#69D6F9"/>
  <path d="M24.885 24.1328V21.6278C24.885 21.0987 25.0952 20.5913 25.4693 20.2171C25.8434 19.843 26.3509 19.6328 26.88 19.6328H38.7124C39.2415 19.6328 39.749 19.843 40.1231 20.2171C40.4972 20.5913 40.7074 21.0987 40.7074 21.6278V25.9769C40.7074 26.506 40.4972 27.0135 40.1231 27.3876C39.749 27.7617 39.2415 27.9719 38.7124 27.9719H26.88C26.3509 27.9719 25.8434 27.7617 25.4693 27.3876C25.0952 27.0135 24.885 26.506 24.885 25.9769V24.1328ZM30.6404 24.1713C30.6402 23.8217 30.5365 23.48 30.3422 23.1894C30.1478 22.8987 29.8717 22.6723 29.5487 22.5385C29.2257 22.4048 28.8703 22.3699 28.5275 22.4381C28.1846 22.5064 27.8697 22.6747 27.6225 22.9219C27.3753 23.1691 27.2069 23.484 27.1387 23.8269C27.0704 24.1698 27.1054 24.5252 27.2391 24.8482C27.3728 25.1712 27.5993 25.4473 27.8899 25.6416C28.1805 25.8359 28.5222 25.9397 28.8718 25.9398C29.1042 25.9399 29.3342 25.8942 29.5489 25.8054C29.7636 25.7166 29.9586 25.5863 30.123 25.4221C30.2873 25.2579 30.4177 25.0629 30.5066 24.8482C30.5956 24.6336 30.6414 24.4036 30.6414 24.1713H30.6404Z" fill="#69D6F9"/>
  <path d="M40.7085 11.3633V13.5785C40.7085 13.8405 40.6569 14.0999 40.5566 14.3419C40.4564 14.584 40.3094 14.8039 40.1242 14.9892C39.9389 15.1744 39.719 15.3214 39.4769 15.4216C39.2349 15.5219 38.9755 15.5735 38.7135 15.5735H26.88C26.618 15.5735 26.3586 15.5219 26.1165 15.4216C25.8745 15.3214 25.6546 15.1744 25.4693 14.9892C25.284 14.8039 25.1371 14.584 25.0368 14.3419C24.9366 14.0999 24.885 13.8405 24.885 13.5785V9.22937C24.885 8.70027 25.0952 8.19283 25.4693 7.8187C25.8434 7.44456 26.3509 7.23438 26.88 7.23438H38.7124C39.2415 7.23438 39.749 7.44456 40.1231 7.8187C40.4972 8.19283 40.7074 8.70027 40.7074 9.22937L40.7085 11.3633ZM37.9407 11.4018C37.9407 11.052 37.837 10.7101 37.6426 10.4193C37.4483 10.1284 37.1721 9.90175 36.8489 9.7679C36.5258 9.63404 36.1702 9.59902 35.8271 9.66726C35.484 9.7355 35.1689 9.90393 34.9216 10.1513C34.6742 10.3986 34.5058 10.7137 34.4376 11.0568C34.3693 11.3999 34.4043 11.7555 34.5382 12.0786C34.6721 12.4018 34.8987 12.678 35.1896 12.8723C35.4804 13.0667 35.8223 13.1704 36.1721 13.1704C36.641 13.17 37.0906 12.9835 37.422 12.6519C37.7535 12.3203 37.9398 11.8707 37.94 11.4018H37.9407Z" fill="#69D6F9"/>
  <path d="M26.2017 2.37109H38.3162C38.3155 3.08698 38.0307 3.77331 37.5244 4.27939C37.018 4.78547 36.3315 5.06992 35.6156 5.07029H28.9009C28.185 5.07029 27.4985 4.78591 26.9923 4.27972C26.4861 3.77352 26.2017 3.08697 26.2017 2.37109Z" fill="#0400BF"/>
  <path d="M37.94 36.347C37.9396 36.657 37.8583 36.9615 37.7041 37.2304L37.597 37.1954C37.5934 37.1948 37.5898 37.1937 37.5865 37.1923C37.5118 37.1661 37.436 37.1433 37.3593 37.124C37.3224 37.1134 37.2853 37.1035 37.248 37.0943C37.1976 37.081 37.1486 37.0705 37.0996 37.0593L36.9201 37.0243C36.813 37.005 36.7101 36.9917 36.6051 36.9812C36.2513 36.9468 35.8953 36.9423 35.5407 36.9679C35.5229 36.9679 35.5057 36.9707 35.4872 36.9707C35.457 36.9735 35.4268 36.9755 35.3965 36.9767C35.3032 36.9825 35.2171 36.9884 35.1382 36.9945C35.0217 37.0035 34.9047 37.0035 34.7882 36.9945C34.7882 36.9945 34.6832 36.9693 34.503 36.9308C34.4356 36.7426 34.401 36.5442 34.4008 36.3442C34.3975 36.1099 34.4408 35.8773 34.5282 35.6598C34.6156 35.4424 34.7453 35.2445 34.9098 35.0776C35.0744 34.9107 35.2704 34.7782 35.4866 34.6878C35.7028 34.5974 35.9348 34.5508 36.1692 34.5508C36.4035 34.5508 36.6355 34.5974 36.8517 34.6878C37.0679 34.7782 37.2639 34.9107 37.4285 35.0776C37.593 35.2445 37.7227 35.4424 37.8101 35.6598C37.8975 35.8773 37.9408 36.1099 37.9375 36.3442L37.94 36.347Z" fill="white"/>
  <path d="M34.4036 11.4014C34.4036 11.6336 34.4493 11.8636 34.5382 12.0782C34.6271 12.2927 34.7574 12.4877 34.9216 12.6519C35.0858 12.8161 35.2808 12.9464 35.4954 13.0353C35.7099 13.1242 35.9399 13.1699 36.1721 13.1699C36.4044 13.1699 36.6344 13.1242 36.8489 13.0353C37.0635 12.9464 37.2585 12.8161 37.4227 12.6519C37.5869 12.4877 37.7172 12.2927 37.8061 12.0782C37.895 11.8636 37.9407 11.6336 37.9407 11.4014C37.9407 11.1691 37.895 10.9391 37.8061 10.7246C37.7172 10.51 37.5869 10.315 37.4227 10.1508C37.2585 9.98658 37.0635 9.85631 36.8489 9.76744C36.6344 9.67856 36.4044 9.63281 36.1721 9.63281C35.9399 9.63281 35.7099 9.67856 35.4954 9.76744C35.2808 9.85631 35.0858 9.98658 34.9216 10.1508C34.7574 10.315 34.6271 10.51 34.5382 10.7246C34.4493 10.9391 34.4036 11.1691 34.4036 11.4014Z" fill="white"/>
  <path d="M27.1029 44.2109H32.7288C32.5433 44.5652 32.406 44.9427 32.3207 45.3334L32.2157 45.3274C31.4058 45.1479 27.1029 44.2109 27.1029 44.2109Z" fill="#0400BF"/>
  <path d="M28.8729 22.4023C29.2228 22.4021 29.5648 22.5056 29.8559 22.6997C30.1469 22.8939 30.3738 23.1701 30.5079 23.4932C30.6419 23.8164 30.6771 24.172 30.609 24.5152C30.5409 24.8584 30.3725 25.1736 30.1252 25.4211C29.8779 25.6685 29.5627 25.8371 29.2196 25.9054C28.8765 25.9737 28.5208 25.9387 28.1976 25.8049C27.8743 25.671 27.5981 25.4443 27.4037 25.1533C27.2094 24.8624 27.1057 24.5204 27.1057 24.1705C27.1059 23.7018 27.2921 23.2523 27.6235 22.9208C27.9548 22.5893 28.4042 22.4028 28.8729 22.4023Z" fill="white"/>
  <path d="M24.7331 2.37109H25.7726C24.8224 2.37128 23.9112 2.74884 23.2394 3.42074C22.5675 4.09264 22.1901 5.00388 22.19 5.95404V24.1327H21.1505V5.95404C21.1506 5.00388 21.528 4.09264 22.1999 3.42074C22.8717 2.74884 23.7829 2.37128 24.7331 2.37109Z" fill="#0400BF"/>
  <path d="M25.7726 44.2109H24.7331C23.7825 44.2108 22.8709 43.8332 22.1987 43.161C21.5265 42.4888 21.1488 41.5772 21.1487 40.6266V24.1328H22.19V40.6266C22.1901 41.5769 22.5675 42.4882 23.2393 43.1604C23.9111 43.8325 24.8223 44.2104 25.7726 44.2109Z" fill="#0400BF"/>
  <path d="M20.0588 34.2375V38.7735C20.0588 38.7735 18.4387 38.496 16.2354 38.1292C14.0322 37.7624 14.0304 35.1192 15.2078 34.2375C16.3852 33.3559 19.9073 34.2375 19.9073 34.2375H20.0588Z" fill="#FFC077"/>
  <path d="M13.1484 22.6442V25.0287H12.4281C12.1625 25.0287 12.0288 25.4326 12.2181 25.6703L12.7274 26.3104L11.3851 27.9971L10.8752 27.3569C10.6865 27.1196 10.3659 27.2869 10.3659 27.6215V28.527H8.46684V27.6215C8.46684 27.2873 8.14589 27.1196 7.95724 27.3569L7.44799 27.9971L6.10574 26.3104L6.61499 25.6703C6.80364 25.4326 6.66994 25.0287 6.40499 25.0287H5.68399V22.6442H6.40499C6.67064 22.6442 6.80434 22.2389 6.61499 22.0026L6.10574 21.3614L7.44799 19.6748L7.95724 20.3146C8.14589 20.5508 8.46684 20.3846 8.46684 20.0489V19.1445H10.3659V20.0503C10.3659 20.3856 10.6865 20.5522 10.8752 20.316L11.3844 19.6762L12.7267 21.3614L12.2174 22.0012C12.0288 22.2375 12.1625 22.6428 12.4274 22.6428L13.1484 22.6442ZM10.5423 23.8366C10.5423 23.054 10.0376 22.4198 9.41709 22.4198C8.79654 22.4198 8.29009 23.054 8.29009 23.8366C8.29009 24.6192 8.79479 25.2517 9.41709 25.2517C10.0394 25.2517 10.5423 24.6164 10.5423 23.8366Z" fill="#69D6F9"/>
  <path d="M2.39224 17.0684H3.60989V31.1982H2.39224V17.0684Z" fill="#FFC077"/>
  <path d="M3.60989 17.0684L15.5284 18.1079V30.1587L3.60989 31.1982" stroke="#0400BF" stroke-width="0.10176" stroke-linecap="round" stroke-linejoin="round"/>
  <path d="M2.39224 17.0684H3.60989V31.1982H2.39224V17.0684Z" stroke="#0400BF" stroke-width="0.10176" stroke-linecap="round" stroke-linejoin="round"/>
  <path d="M59.0194 3.2168L48.553 5.46625V16.7926L59.0194 15.6253" stroke="#0400BF" stroke-width="0.10176" stroke-linecap="round" stroke-linejoin="round"/>
  <path d="M59.0194 3.2168H60.0887V15.6257H59.0194V3.2168Z" stroke="#0400BF" stroke-width="0.10176" stroke-linecap="round" stroke-linejoin="round"/>
  <path d="M66.668 29.7949L55.6948 30.7515V41.8444L66.668 42.8023" stroke="#0400BF" stroke-width="0.10176" stroke-linecap="round" stroke-linejoin="round"/>
  <path d="M66.668 29.7949H67.7891V42.802H66.668V29.7949Z" stroke="#0400BF" stroke-width="0.10176" stroke-linecap="round" stroke-linejoin="round"/>
  <path d="M38.3163 2.37109H39.4748C39.9454 2.37096 40.4114 2.46353 40.8463 2.64352C41.2811 2.82352 41.6762 3.08741 42.0091 3.42012C42.3419 3.75284 42.606 4.14787 42.7861 4.58264C42.9663 5.01741 43.0591 5.48342 43.0591 5.95404V40.6264" stroke="#0400BF" stroke-width="0.10176" stroke-linecap="round" stroke-linejoin="round"/>
  <path d="M26.0116 2.37109H26.2017" stroke="#0400BF" stroke-width="0.10176" stroke-linecap="round" stroke-linejoin="round"/>
  <path d="M24.7331 44.2108C23.7825 44.2107 22.8709 43.833 22.1987 43.1609C21.5265 42.4887 21.1488 41.577 21.1487 40.6264V5.95404C21.1488 5.48342 21.2415 5.01741 21.4217 4.58264C21.6019 4.14787 21.8659 3.75284 22.1988 3.42012C22.5316 3.08741 22.9267 2.82352 23.3616 2.64352C23.7964 2.46353 24.2625 2.37096 24.7331 2.37109" stroke="#0400BF" stroke-width="0.10176" stroke-linecap="round" stroke-linejoin="round"/>
  <path d="M36.3667 44.2109H32.7288H27.1029H26.0116" stroke="#0400BF" stroke-width="0.10176" stroke-linecap="round" stroke-linejoin="round"/>
  <path d="M25.7726 44.2108C24.8223 44.2102 23.9111 43.8324 23.2393 43.1602C22.5675 42.4881 22.1901 41.5767 22.19 40.6264V5.95404C22.1901 5.00388 22.5676 4.09264 23.2394 3.42074C23.9112 2.74884 24.8224 2.37128 25.7726 2.37109" stroke="#0400BF" stroke-width="0.10176" stroke-linecap="round" stroke-linejoin="round"/>
  <path d="M21.4606 43.5857C21.0264 43.2752 20.6727 42.8654 20.4289 42.3906C20.1851 41.9157 20.0582 41.3895 20.0588 40.8557V5.72515C20.0587 5.28448 20.1455 4.84812 20.3142 4.44101C20.4828 4.0339 20.7301 3.66402 21.0418 3.35253C21.3534 3.04103 21.7235 2.79402 22.1307 2.62562C22.5379 2.45722 22.9743 2.37073 23.415 2.37109H26.0134" stroke="#0400BF" stroke-width="0.10176" stroke-linecap="round" stroke-linejoin="round"/>
  <path d="M26.0116 44.2105H23.415C22.7149 44.2118 22.0322 43.9926 21.4637 43.584" stroke="#0400BF" stroke-width="0.10176" stroke-linecap="round" stroke-linejoin="round"/>
  <path d="M38.3162 2.37109C38.3155 3.08698 38.0307 3.77331 37.5244 4.27939C37.018 4.78547 36.3315 5.06992 35.6156 5.07029H28.9009C28.185 5.07029 27.4985 4.78591 26.9923 4.27972C26.4861 3.77352 26.2017 3.08697 26.2017 2.37109H38.3162Z" stroke="#0400BF" stroke-width="0.10176" stroke-linecap="round" stroke-linejoin="round"/>
  <path d="M38.7128 15.5728H26.88C26.3509 15.5728 25.8434 15.3626 25.4693 14.9885C25.0952 14.6143 24.885 14.1069 24.885 13.5778V9.22937C24.885 8.70027 25.0952 8.19283 25.4693 7.8187C25.8434 7.44456 26.3509 7.23438 26.88 7.23438H38.7124C39.2415 7.23438 39.749 7.44456 40.1231 7.8187C40.4972 8.19283 40.7074 8.70027 40.7074 9.22937V13.5785C40.7072 14.1074 40.497 14.6146 40.123 14.9886C39.7489 15.3625 39.2417 15.5727 38.7128 15.5728Z" stroke="#0400BF" stroke-width="0.10176" stroke-linecap="round" stroke-linejoin="round"/>
  <path d="M38.7128 27.9712H26.88C26.3509 27.9712 25.8434 27.761 25.4693 27.3869C25.0952 27.0128 24.885 26.5053 24.885 25.9762V21.6278C24.885 21.0987 25.0952 20.5913 25.4693 20.2171C25.8434 19.843 26.3509 19.6328 26.88 19.6328H38.7124C39.2415 19.6328 39.749 19.843 40.1231 20.2171C40.4972 20.5913 40.7074 21.0987 40.7074 21.6278V25.9769C40.7072 26.5058 40.497 27.013 40.123 27.387C39.7489 27.761 39.2417 27.9711 38.7128 27.9712Z" stroke="#0400BF" stroke-width="0.10176" stroke-linecap="round" stroke-linejoin="round"/>
  <path d="M29.5795 40.3697H26.88C26.3509 40.3697 25.8434 40.1595 25.4693 39.7853C25.0952 39.4112 24.885 38.9038 24.885 38.3747V34.0263C24.885 33.4971 25.0952 32.9897 25.4693 32.6156C25.8434 32.2414 26.3509 32.0312 26.88 32.0312H38.7124C39.2415 32.0312 39.749 32.2414 40.1231 32.6156C40.4972 32.9897 40.7074 33.4971 40.7074 34.0263V38.3753C40.7077 38.6417 40.6541 38.9054 40.5499 39.1506" stroke="#0400BF" stroke-width="0.10176" stroke-linecap="round" stroke-linejoin="round"/>
  <path d="M16.5858 24.1328H20.0588H21.1487H22.1882H24.886H26.2017" stroke="#0400BF" stroke-width="0.10176" stroke-linecap="round" stroke-linejoin="round"/>
  <path d="M34.5061 36.9342C33.8544 36.7959 32.2374 36.5005 31.2977 36.7277C30.5508 36.9104 28.9649 38.0269 29.2575 39.5609C29.3152 39.8477 29.4238 40.1217 29.5781 40.3701C29.6614 40.5064 29.7536 40.6369 29.8543 40.7607C31.5752 42.887 34.294 43.6041 36.0843 43.7452L36.442 44.1102C37.3121 45.0027 39.5171 47.2602 40.1037 47.8902C40.1037 47.8902 41.8141 54.5955 43.7059 56.4873C46.2658 59.0486 47.7309 59.779 49.3759 60.024" stroke="#0400BF" stroke-width="0.10176" stroke-linecap="round" stroke-linejoin="round"/>
  <path d="M35.3986 36.9785C35.3053 36.9843 35.2192 36.9903 35.1404 36.9964" stroke="#0400BF" stroke-width="0.10176" stroke-linecap="round" stroke-linejoin="round"/>
  <path d="M36.9208 37.0258C36.8137 37.0066 36.7108 36.9933 36.6058 36.9828C36.252 36.9483 35.896 36.9439 35.5414 36.9695" stroke="#0400BF" stroke-width="0.10176" stroke-linecap="round" stroke-linejoin="round"/>
  <path d="M37.2487 37.0936C37.1983 37.0803 37.1493 37.0698 37.1003 37.0586" stroke="#0400BF" stroke-width="0.10176" stroke-linecap="round" stroke-linejoin="round"/>
  <path d="M37.5872 37.1913C37.5125 37.1651 37.4368 37.1424 37.36 37.123" stroke="#0400BF" stroke-width="0.10176" stroke-linecap="round" stroke-linejoin="round"/>
  <path d="M45.4139 42.2425C44.3778 41.7891 43.3911 41.2304 42.4693 40.5751C41.8095 40.1284 41.1629 39.6624 40.5303 39.1779C40.077 38.8316 39.6319 38.4746 39.1954 38.1073C38.7539 37.7301 38.2493 37.4339 37.7048 37.2323L37.5977 37.1973" stroke="#0400BF" stroke-width="0.10176" stroke-linecap="round" stroke-linejoin="round"/>
  <path d="M42.4693 40.5762C42.4693 40.5762 42.7042 40.621 43.0545 40.6654C43.779 40.7589 45.0026 40.8569 45.6827 40.5762" stroke="#0400BF" stroke-width="0.10176" stroke-linecap="round" stroke-linejoin="round"/>
  <path d="M35.49 36.9707C35.1067 37.3907 33.2566 38.797 33.495 40.5729" stroke="#0400BF" stroke-width="0.10176" stroke-linecap="round" stroke-linejoin="round"/>
  <path d="M29.2575 39.5601C29.9554 40.0826 31.6701 40.4001 32.3414 40.0231C32.3414 40.0231 32.7365 38.0113 33.6241 37.3418" stroke="#0400BF" stroke-width="0.10176" stroke-linecap="round" stroke-linejoin="round"/>
  <path d="M65.9151 68.8716C65.9151 68.8716 65.9151 67.1296 64.6604 64.0066C63.6062 61.3784 58.4094 53.5146 56.7924 49.0129C55.2377 44.6831 53.0432 39.2829 51.6442 36.31C51.5893 36.1896 51.5343 36.0755 51.4811 35.9639C50.0955 33.0774 47.5552 26.3809 45.9382 23.6089C44.3212 20.8369 43.0591 20.4512 43.0591 20.4512" stroke="#0400BF" stroke-width="0.10176" stroke-linecap="round" stroke-linejoin="round"/>
  <path d="M46.578 63.8243L46.5602 63.8184V63.8212C46.578 63.8912 46.97 65.4235 47.2314 66.8294C47.3836 67.4992 47.4563 68.1845 47.4481 68.8713" stroke="#0400BF" stroke-width="0.10176" stroke-linecap="round" stroke-linejoin="round"/>
  <path d="M31.8335 49.4258C31.786 49.6657 31.766 49.9103 31.774 50.1548C31.774 50.2308 31.7786 50.3064 31.7845 50.382C31.8342 50.93 32.0363 51.4532 32.368 51.8922C33.033 52.7728 34.1575 54.1742 34.7987 54.4742C34.7987 54.4742 41.1481 62.4192 44.0762 63.1829C45.9959 63.6834 46.4667 63.8006 46.5612 63.8213C46.5666 63.8227 46.5721 63.8238 46.5776 63.8244C46.5796 63.8249 46.5816 63.8249 46.5836 63.8244" stroke="#0400BF" stroke-width="0.10176" stroke-linecap="round" stroke-linejoin="round"/>
  <path d="M31.774 50.3823C31.774 50.3823 28.4378 49.9973 26.6455 49.4261C26.6455 49.4261 23.7902 48.6778 22.9943 48.3348C22.9943 48.3348 18.0054 46.4833 16.7447 45.7543C15.484 45.0252 16.0797 41.9694 18.6035 42.6998C19.5613 42.9771 20.5138 43.2722 21.4606 43.585" stroke="#0400BF" stroke-width="0.10176" stroke-linecap="round" stroke-linejoin="round"/>
  <path d="M22.6023 45.1797C22.6023 45.1797 22.4273 45.9665 22.3842 46.3602" stroke="#0400BF" stroke-width="0.10176" stroke-linecap="round" stroke-linejoin="round"/>
  <path d="M27.2055 45.9219C27.2055 45.9219 27.0305 47.1542 26.9871 47.548" stroke="#0400BF" stroke-width="0.10176" stroke-linecap="round" stroke-linejoin="round"/>
  <path d="M46.5602 63.8184C46.5602 63.8184 47.383 63.8317 47.9055 63.8184L47.2328 66.8284" stroke="#0400BF" stroke-width="0.10176" stroke-linecap="round" stroke-linejoin="round"/>
  <path d="M19.9073 34.2377C19.9073 34.2377 16.3824 33.3557 15.2078 34.2377C14.0332 35.1197 14.0318 37.7626 16.2354 38.1294C18.439 38.4962 20.0588 38.7737 20.0588 38.7737" stroke="#0400BF" stroke-width="0.10176" stroke-linecap="round" stroke-linejoin="round"/>
  <path d="M32.7288 44.2109C32.5433 44.5652 32.406 44.9427 32.3207 45.3334C32.2649 45.575 32.2297 45.8208 32.2157 46.0684" stroke="#0400BF" stroke-width="0.10176" stroke-linecap="round" stroke-linejoin="round"/>
  <path d="M27.1029 44.2109C27.1029 44.2109 31.4058 45.1479 32.215 45.3274" stroke="#0400BF" stroke-width="0.10176" stroke-linecap="round" stroke-linejoin="round"/>
  <path d="M30.6414 24.1705C30.6414 24.5201 30.5377 24.8619 30.3434 25.1525C30.1491 25.4432 29.873 25.6697 29.55 25.8035C29.227 25.9373 28.8716 25.9723 28.5287 25.9041C28.1859 25.8359 27.8709 25.6676 27.6237 25.4204C27.3764 25.1732 27.208 24.8583 27.1398 24.5154C27.0715 24.1725 27.1064 23.8171 27.2401 23.4941C27.3739 23.171 27.6003 22.8949 27.891 22.7006C28.1816 22.5063 28.5233 22.4025 28.8729 22.4023C29.1051 22.4023 29.3351 22.448 29.5497 22.5368C29.7642 22.6257 29.9592 22.7559 30.1234 22.9201C30.2877 23.0843 30.4179 23.2793 30.5068 23.4938C30.5957 23.7084 30.6414 23.9383 30.6414 24.1705Z" stroke="#0400BF" stroke-width="0.10176" stroke-linecap="round" stroke-linejoin="round"/>
  <path d="M46.9745 11.3633H43.0591H40.7085H38.8451" stroke="#0400BF" stroke-width="0.10176" stroke-linecap="round" stroke-linejoin="round"/>
  <path d="M34.4036 11.4014C34.4036 11.6336 34.4493 11.8636 34.5382 12.0782C34.6271 12.2927 34.7574 12.4877 34.9216 12.6519C35.0858 12.8161 35.2808 12.9464 35.4954 13.0353C35.7099 13.1242 35.9399 13.1699 36.1721 13.1699C36.4044 13.1699 36.6344 13.1242 36.8489 13.0353C37.0635 12.9464 37.2585 12.8161 37.4227 12.6519C37.5869 12.4877 37.7172 12.2927 37.8061 12.0782C37.895 11.8636 37.9407 11.6336 37.9407 11.4014C37.9407 11.1691 37.895 10.9391 37.8061 10.7246C37.7172 10.51 37.5869 10.315 37.4227 10.1508C37.2585 9.98658 37.0635 9.85631 36.8489 9.76744C36.6344 9.67856 36.4044 9.63281 36.1721 9.63281C35.9399 9.63281 35.7099 9.67856 35.4954 9.76744C35.2808 9.85631 35.0858 9.98658 34.9216 10.1508C34.7574 10.315 34.6271 10.51 34.5382 10.7246C34.4493 10.9391 34.4036 11.1691 34.4036 11.4014Z" stroke="#0400BF" stroke-width="0.10176" stroke-linecap="round" stroke-linejoin="round"/>
  <path d="M54.3987 36.3086H51.6442H43.0591H40.7085H38.8451" stroke="#0400BF" stroke-width="0.10176" stroke-linecap="round" stroke-linejoin="round"/>
  <path d="M34.5061 36.9337C34.6846 36.9722 34.7914 36.9974 34.7914 36.9974C34.9079 37.0064 35.0249 37.0064 35.1414 36.9974C35.2214 36.9927 35.3075 36.9868 35.3997 36.9796C35.4294 36.9796 35.4592 36.9768 35.4903 36.9736C35.5082 36.9736 35.5253 36.9736 35.5439 36.9708C35.8984 36.946 36.2544 36.9504 36.6082 36.9841C36.7094 36.9946 36.8147 37.0093 36.9232 37.0272C37.0712 37.0531 37.2178 37.0863 37.3625 37.1269C37.4384 37.1476 37.514 37.17 37.5896 37.1952C37.593 37.1966 37.5965 37.1977 37.6001 37.1983C37.6351 37.2099 37.6701 37.2218 37.7051 37.2354V37.2337C37.8406 36.9987 37.9201 36.7357 37.9377 36.4651C37.9552 36.1944 37.9103 35.9234 37.8064 35.6729C37.7025 35.4224 37.5424 35.1992 37.3384 35.0204C37.1344 34.8417 36.8921 34.7123 36.6301 34.6422C36.3681 34.572 36.0935 34.5631 35.8275 34.6161C35.5615 34.669 35.3113 34.7824 35.0961 34.9476C34.881 35.1127 34.7067 35.325 34.5867 35.5683C34.4668 35.8115 34.4043 36.0791 34.4043 36.3503C34.4047 36.5491 34.4392 36.7465 34.5061 36.9337Z" stroke="#0400BF" stroke-width="0.10176" stroke-linecap="round" stroke-linejoin="round"/>
  <path d="M13.1484 22.6442H12.4281C12.1625 22.6442 12.0288 22.2389 12.2181 22.0026L12.7267 21.3614L11.3844 19.6748L10.8752 20.3146C10.6865 20.5508 10.3659 20.3846 10.3659 20.0489V19.1445H8.46684V20.0503C8.46684 20.3856 8.14589 20.5522 7.95724 20.316L7.44799 19.6762L6.10574 21.3614L6.61499 22.0026C6.80364 22.2389 6.66994 22.6442 6.40499 22.6442H5.68399V25.0287H6.40499C6.67064 25.0287 6.80434 25.4326 6.61499 25.6703L6.10574 26.3104L7.44799 27.9971L7.95724 27.3569C8.14589 27.1196 8.46684 27.2869 8.46684 27.6215V28.527H10.3659V27.6215C10.3659 27.2873 10.6865 27.1196 10.8752 27.3569L11.3844 27.9971L12.7267 26.3104L12.2174 25.6703C12.0288 25.4326 12.1625 25.0287 12.4274 25.0287H13.1477V22.6442H13.1484Z" stroke="#0400BF" stroke-width="0.10176" stroke-linecap="round" stroke-linejoin="round"/>
  <path d="M10.5423 23.8367C10.5423 24.6176 10.0376 25.2518 9.4171 25.2518C8.79655 25.2518 8.2901 24.6176 8.2901 23.8367C8.2901 23.0559 8.7948 22.4199 9.4171 22.4199C10.0394 22.4199 10.5423 23.0541 10.5423 23.8367Z" stroke="#0400BF" stroke-width="0.10176" stroke-linecap="round" stroke-linejoin="round"/>
  <path d="M54.5324 9.5681C54.2463 9.43855 53.9328 9.38088 53.6193 9.4001C52.9333 9.44455 52.3376 9.9363 51.9295 10.6475C51.5031 11.4221 51.3078 12.3027 51.3667 13.185C51.3695 13.2308 51.3726 13.2784 51.3772 13.325" stroke="#0400BF" stroke-width="0.10176" stroke-linecap="round" stroke-linejoin="round"/>
  <path d="M56.3126 12.7056C56.3126 12.6594 56.3098 12.6136 56.3066 12.5657C56.2671 11.8041 56.0134 11.0691 55.5748 10.4454C55.4398 10.2584 55.2833 10.0879 55.1086 9.9375" stroke="#0400BF" stroke-width="0.10176" stroke-linecap="round" stroke-linejoin="round"/>
  <path d="M56.3125 12.706L57.7825 12.6108C57.7797 12.5649 57.7797 12.5187 57.7766 12.4708C57.7127 11.261 57.311 10.0933 56.617 9.10027C55.8197 8.00162 54.6955 7.34362 53.4929 7.42237C52.3362 7.49832 51.3397 8.32082 50.6894 9.51467C50.0809 10.672 49.8074 11.9761 49.8995 13.2803C49.9026 13.3276 49.9068 13.3738 49.91 13.4203L51.38 13.3255" stroke="#0400BF" stroke-width="0.10176" stroke-linecap="round" stroke-linejoin="round"/>
  <path d="M55.1086 9.93823L55.1814 9.80453C55.2288 9.71148 55.2471 9.60628 55.2338 9.50269C55.2204 9.3991 55.1762 9.30193 55.1068 9.22388C55.0777 9.19142 55.0407 9.16692 54.9995 9.15269C54.9583 9.13847 54.9141 9.135 54.8711 9.1426C54.8282 9.1502 54.7879 9.16863 54.754 9.19614C54.7202 9.22365 54.6939 9.25934 54.6777 9.29983L54.5325 9.56863L53.9375 10.6641C53.8608 10.6371 53.7795 10.626 53.6984 10.6316C53.2602 10.6599 52.9351 11.1618 52.9736 11.7516C53.0121 12.3413 53.3999 12.7984 53.8377 12.7701C54.2756 12.7417 54.6011 12.2402 54.5626 11.6501C54.5519 11.4828 54.5111 11.3188 54.4422 11.166L55.1086 9.93823Z" stroke="#0400BF" stroke-width="0.10176" stroke-linecap="round" stroke-linejoin="round"/>
  <path d="M53.4915 7.42188L53.6193 9.39973" stroke="#0400BF" stroke-width="0.10176" stroke-linecap="round" stroke-linejoin="round"/>
  <path d="M50.6985 9.52148L51.7734 10.638" stroke="#0400BF" stroke-width="0.10176" stroke-linecap="round" stroke-linejoin="round"/>
  <path d="M56.5621 9.13867L55.6622 10.3847" stroke="#0400BF" stroke-width="0.10176" stroke-linecap="round" stroke-linejoin="round"/>
  <path d="M62.23 36.5053L63.105 35.3947C63.3588 35.4816 63.6341 35.4835 63.8891 35.4001C64.1441 35.3168 64.3651 35.1527 64.5186 34.9327C64.7461 34.6359 64.8864 34.2817 64.9239 33.9097C64.9134 33.9233 64.9033 33.938 64.8928 33.9527C64.8015 34.0846 64.6795 34.1924 64.5374 34.2668C64.3953 34.3413 64.2372 34.3802 64.0768 34.3802C63.9163 34.3802 63.7583 34.3413 63.6162 34.2668C63.474 34.1924 63.3521 34.0846 63.2607 33.9527C63.0416 33.6525 62.9235 33.2904 62.9235 32.9186C62.9235 32.5469 63.0416 32.1848 63.2607 31.8846C63.2712 31.8706 63.2829 31.8576 63.2957 31.8457C62.9724 31.9108 62.6846 32.0934 62.4879 32.3581C62.3007 32.6125 62.1711 32.9046 62.1083 33.2141C62.0455 33.5237 62.051 33.8432 62.1243 34.1505L61.2493 35.261" stroke="#0400BF" stroke-width="0.10176" stroke-linecap="round" stroke-linejoin="round"/>
  <path d="M60.2654 36.5059L59.0226 38.0809L59.0359 38.0973C58.9079 38.1031 58.7829 38.1376 58.6701 38.1981C58.5572 38.2587 58.4594 38.3439 58.3838 38.4473C58.2055 38.6926 58.1094 38.9881 58.1094 39.2913C58.1094 39.5946 58.2055 39.8901 58.3838 40.1354C58.4585 40.2429 58.558 40.3308 58.674 40.3915C58.79 40.4522 58.919 40.484 59.0499 40.484C59.1808 40.484 59.3098 40.4522 59.4258 40.3915C59.5418 40.3308 59.6413 40.2429 59.7159 40.1354C59.8949 39.8975 59.9914 39.6077 59.9907 39.3101L60.004 39.3262L60.7999 38.3182L61.2468 37.7508" stroke="#0400BF" stroke-width="0.10176" stroke-linecap="round" stroke-linejoin="round"/>
  <path d="M61.2468 35.261L60.3718 34.1505C60.4449 33.8431 60.4501 33.5235 60.387 33.2139C60.3239 32.9044 60.194 32.6123 60.0064 32.3581C59.8107 32.0936 59.5239 31.911 59.2014 31.8457C59.213 31.8581 59.2238 31.871 59.234 31.8846C59.4537 32.1846 59.5722 32.5468 59.5722 32.9186C59.5722 33.2905 59.4537 33.6527 59.234 33.9527C59.1428 34.0846 59.0211 34.1924 58.8791 34.2669C58.7371 34.3413 58.5792 34.3802 58.4188 34.3802C58.2585 34.3802 58.1006 34.3413 57.9586 34.2669C57.8166 34.1924 57.6948 34.0846 57.6037 33.9527C57.5918 33.938 57.5827 33.9233 57.5725 33.9097C57.6101 34.2814 57.7499 34.6355 57.9764 34.9327C58.1302 35.1529 58.3514 35.317 58.6067 35.4004C58.862 35.4837 59.1374 35.4817 59.3915 35.3947L60.2665 36.5053L61.2465 37.7495L62.4893 39.3245L62.5012 39.3084C62.5009 39.606 62.5972 39.8956 62.7756 40.1337C62.8503 40.2413 62.9498 40.3292 63.0658 40.3899C63.1818 40.4506 63.3108 40.4823 63.4417 40.4823C63.5726 40.4823 63.7016 40.4506 63.8176 40.3899C63.9336 40.3292 64.0331 40.2413 64.1077 40.1337C64.2871 39.8889 64.3839 39.5932 64.3839 39.2897C64.3839 38.9861 64.2871 38.6905 64.1077 38.4457C64.0326 38.3422 63.9352 38.257 63.8226 38.1964C63.71 38.1358 63.5852 38.1013 63.4574 38.0957L63.4693 38.0792L62.2279 36.5042L61.2468 35.261Z" stroke="#0400BF" stroke-width="0.10176" stroke-linecap="round" stroke-linejoin="round"/>
  <path d="M60.2654 36.5059L60.7999 38.3175" stroke="#0400BF" stroke-width="0.10176" stroke-linecap="round" stroke-linejoin="round"/>
</svg>