<svg width="20" height="20" viewBox="0 0 20 20" fill="none" xmlns="http://www.w3.org/2000/svg">
<rect width="20" height="20" rx="10" fill="#E93592"/>
<path d="M15 10.8307H10.8333V14.9974C10.8333 15.2184 10.7455 15.4304 10.5892 15.5867C10.4329 15.7429 10.221 15.8307 9.99996 15.8307C9.77895 15.8307 9.56698 15.7429 9.4107 15.5867C9.25442 15.4304 9.16663 15.2184 9.16663 14.9974V10.8307H4.99996C4.77895 10.8307 4.56698 10.7429 4.4107 10.5867C4.25442 10.4304 4.16663 10.2184 4.16663 9.9974C4.16663 9.77638 4.25442 9.56442 4.4107 9.40814C4.56698 9.25186 4.77895 9.16406 4.99996 9.16406H9.16663V4.9974C9.16663 4.77638 9.25442 4.56442 9.4107 4.40814C9.56698 4.25186 9.77895 4.16406 9.99996 4.16406C10.221 4.16406 10.4329 4.25186 10.5892 4.40814C10.7455 4.56442 10.8333 4.77638 10.8333 4.9974V9.16406H15C15.221 9.16406 15.4329 9.25186 15.5892 9.40814C15.7455 9.56442 15.8333 9.77638 15.8333 9.9974C15.8333 10.2184 15.7455 10.4304 15.5892 10.5867C15.4329 10.7429 15.221 10.8307 15 10.8307Z" fill="white"/>
</svg>
