<svg width="17" height="17" viewBox="0 0 17 17" fill="none" xmlns="http://www.w3.org/2000/svg">
<path id="Vector" d="M8.5 0C10.7543 0 12.9163 0.895533 14.5104 2.48959C16.1045 4.08365 17 6.24566 17 8.5C17 10.7543 16.1045 12.9163 14.5104 14.5104C12.9163 16.1045 10.7543 17 8.5 17C6.24566 17 4.08365 16.1045 2.48959 14.5104C0.895533 12.9163 0 10.7543 0 8.5C0 6.24566 0.895533 4.08365 2.48959 2.48959C4.08365 0.895533 6.24566 0 8.5 0ZM8.9505 3.63314C7.96207 3.63314 7.18736 3.91364 6.613 4.47464C6.02529 5.03564 5.74479 5.81036 5.74479 6.79879H7.2675C7.2675 6.23779 7.37436 5.797 7.60143 5.48979C7.85521 5.11579 8.26929 4.94214 8.857 4.94214C9.31114 4.94214 9.67179 5.06236 9.92557 5.31614C10.166 5.56993 10.2996 5.91721 10.2996 6.358C10.2996 6.69193 10.1794 7.0125 9.93893 7.30636L9.77864 7.49336C8.91043 8.26807 8.3895 8.82907 8.21586 9.18971C8.02886 9.55036 7.94871 9.99114 7.94871 10.4987V10.6857H9.48479V10.4987C9.48479 10.1781 9.55157 9.89764 9.68514 9.6305C9.80536 9.39007 9.979 9.163 10.2194 8.96264C10.8606 8.40164 11.2479 8.041 11.3681 7.90743C11.6887 7.48 11.8624 6.93236 11.8624 6.2645C11.8624 5.44971 11.5952 4.80857 11.0609 4.34107C10.5266 3.86021 9.81872 3.63314 8.9505 3.63314ZM8.71007 11.3402C8.43773 11.3328 8.17356 11.4337 7.97543 11.6207C7.8776 11.7128 7.80073 11.8249 7.75003 11.9494C7.69933 12.0738 7.67598 12.2077 7.68157 12.342C7.68157 12.6359 7.77507 12.8763 7.97543 13.0633C8.17207 13.2541 8.43605 13.3597 8.71007 13.3571C9.00393 13.3571 9.24436 13.2636 9.44471 13.0766C9.54461 12.9826 9.62359 12.8686 9.67652 12.742C9.72945 12.6155 9.75514 12.4792 9.75193 12.342C9.75449 12.2081 9.72976 12.0751 9.67923 11.9511C9.62871 11.8271 9.55346 11.7147 9.45807 11.6207C9.25478 11.4334 8.98642 11.3327 8.71007 11.3402Z" fill="#979797"/>
</svg>
