<svg
													xmlns="http://www.w3.org/2000/svg"
													width="19"
													height="19"
													viewBox="0 0 19 19"
													fill="none"
												>
													<g clip-path="url(#clip0_13_946)">
														<path
															d="M8.67255 0L10.5478 0.00475C11.2869 0.09405 11.9348 0.44175 12.4688 1.02885C12.9048 1.50765 13.1337 2.06435 13.147 2.67045H18.3483C18.522 2.67146 18.6882 2.74135 18.8104 2.86479C18.9326 2.98823 19.0008 3.15511 19 3.3288C19.0005 3.50232 18.9322 3.66896 18.81 3.7922C18.6879 3.91543 18.5218 3.98519 18.3483 3.9862L16.6041 3.98525V15.0309C16.6041 17.4467 15.7025 19 13.7151 19H5.14805C3.16065 19 2.27335 17.4553 2.27335 15.0309V3.98525H0.6517C0.47851 3.98425 0.312755 3.91474 0.190646 3.79192C0.0685366 3.6691 -2.91013e-06 3.50294 0 3.32975C0 2.9659 0.29165 2.67235 0.6517 2.67235H5.8482C5.8615 2.18405 6.04295 1.6891 6.3745 1.19985C6.8685 0.47025 7.6399 0.0703 8.67255 0ZM15.3007 3.98525H3.5758V15.0309C3.5758 16.8245 4.0698 17.6852 5.14805 17.6852H13.7151C14.7972 17.6852 15.3017 16.8169 15.3017 15.0309L15.3007 3.98525ZM6.3802 6.023C6.7393 6.023 7.03095 6.3175 7.03095 6.6804V14.3279C7.03146 14.5014 6.96314 14.6681 6.84097 14.7913C6.71881 14.9145 6.55277 14.9843 6.37925 14.9853C6.2059 14.984 6.0401 14.9142 5.91814 14.791C5.79618 14.6678 5.72799 14.5013 5.7285 14.3279V6.6804C5.7285 6.3175 6.0211 6.023 6.3802 6.023ZM8.96895 6.023C9.32995 6.023 9.62065 6.3175 9.62065 6.6804V14.3279C9.62116 14.5014 9.55284 14.6681 9.43068 14.7913C9.30851 14.9145 9.14247 14.9843 8.96895 14.9853C8.7956 14.984 8.6298 14.9142 8.50784 14.791C8.38588 14.6678 8.31769 14.5013 8.3182 14.3279V6.6804C8.3182 6.3175 8.60985 6.023 8.96895 6.023ZM11.5605 6.023C11.9196 6.023 12.2113 6.3175 12.2113 6.6804V14.3279C12.2118 14.5013 12.1436 14.6678 12.0217 14.791C11.8997 14.9142 11.7339 14.984 11.5605 14.9853C11.387 14.9843 11.221 14.9145 11.0988 14.7913C10.9767 14.6681 10.9083 14.5014 10.9088 14.3279V6.6804C10.9083 6.50688 10.9767 6.34024 11.0988 6.217C11.221 6.09377 11.387 6.02401 11.5605 6.023ZM8.7172 1.3129C8.1073 1.35565 7.70545 1.5637 7.4499 1.9418C7.2618 2.21825 7.16775 2.45765 7.15255 2.6714L11.8436 2.67045C11.8303 2.394 11.7211 2.1508 11.5092 1.91805C11.1805 1.55705 10.8158 1.36135 10.4709 1.3148L8.7172 1.3129Z"
															fill="#B35B66"
														/>
													</g>
													<defs>
														<clipPath id="clip0_13_946">
															<rect width="19" height="19" fill="white" />
														</clipPath>
													</defs>
												</svg>