<svg width="60" height="60" viewBox="0 0 60 60" fill="none" xmlns="http://www.w3.org/2000/svg">
<g id="ic:baseline-rocket-launch">
<rect width="60" height="60" rx="30" fill="#3164F7"/>
<path id="Vector" d="M24.3191 21.5223L24.7193 21.6005C22.7206 24.2177 21.2376 27.1962 20.5517 28.6874L17.2522 27.2749L22.4347 22.0935C22.9225 21.6058 23.6309 21.3867 24.3177 21.522L24.3191 21.5223ZM29.8243 36.1228L24.3791 30.6788C24.4211 30.5864 24.4678 30.4848 24.519 30.3747C24.7872 29.7989 25.179 28.9963 25.6714 28.0933C26.6652 26.2708 28.0332 24.1061 29.585 22.5548C33.6208 18.5198 37.1551 16.8924 39.7897 16.3011C41.8836 15.8312 43.453 16.0061 44.3096 16.1923C44.4937 17.0535 44.6682 18.6238 44.1998 20.7163C43.6102 23.3502 41.9862 26.8833 37.9507 30.9179C36.3989 32.4693 34.2337 33.8371 32.4108 34.8306C31.5076 35.3229 30.7048 35.7146 30.1289 35.9827C30.0186 36.034 29.9168 36.0808 29.8243 36.1228ZM33.229 43.2484L31.8162 39.9496C33.3078 39.2638 36.2872 37.781 38.905 35.7827L38.9833 36.1831L38.9836 36.1844C39.1188 36.8708 38.8998 37.5789 38.412 38.0666L33.229 43.2484ZM25.2639 38.8483V38.8506C25.2639 39.8481 24.856 40.7504 24.2037 41.4026C23.9154 41.6908 23.2814 42.0379 22.3294 42.3882C21.4164 42.7243 20.341 43.018 19.2978 43.2613C18.3364 43.4855 17.4198 43.6629 16.7113 43.7888C16.8372 43.0805 17.0146 42.1643 17.2388 41.2032C17.4822 40.1603 17.776 39.0852 18.1121 38.1724C18.4625 37.2206 18.8096 36.5868 19.0979 36.2986L19.0997 36.2968C19.6039 35.7901 20.2474 35.4446 20.9484 35.3042C21.6494 35.1638 22.3764 35.2348 23.0369 35.5082C23.6975 35.7817 24.2618 36.2452 24.6583 36.8399C25.0548 37.4346 25.2655 38.1336 25.2639 38.8483Z" stroke="white" stroke-width="2"/>
</g>
</svg>
