<svg xmlns="http://www.w3.org/2000/svg" width="60" height="60" viewBox="0 0 60 60" fill="none">
  <g clip-path="url(#clip0_62_978)">
    <rect width="60" height="60" rx="30" fill="#C0C8CE"/>
    <path d="M31.58 15.7249C31.1153 15.2607 30.4853 15 29.8285 15C29.1717 15 28.5417 15.2607 28.077 15.7249L18.7262 25.0707C18.2612 25.5357 18 26.1663 18 26.8239C18 27.4814 18.2612 28.1121 18.7262 28.577C19.1912 29.042 19.8218 29.3032 20.4794 29.3032C21.1369 29.3032 21.7676 29.042 22.2325 28.577L27.3499 23.4613V42.5214C27.3499 43.1788 27.6111 43.8092 28.0759 44.274C28.5407 44.7389 29.1711 45 29.8285 45C30.4859 45 31.1163 44.7389 31.5811 44.274C32.0459 43.8092 32.3071 43.1788 32.3071 42.5214V23.4613L37.4228 28.577C37.653 28.8073 37.9264 28.9899 38.2272 29.1145C38.528 29.2391 38.8504 29.3032 39.176 29.3032C39.5016 29.3032 39.824 29.2391 40.1248 29.1145C40.4256 28.9899 40.6989 28.8073 40.9292 28.577C41.1594 28.3468 41.342 28.0735 41.4666 27.7727C41.5912 27.4719 41.6553 27.1495 41.6553 26.8239C41.6553 26.4983 41.5912 26.1759 41.4666 25.8751C41.342 25.5743 41.1594 25.3009 40.9292 25.0707L31.58 15.7249Z" fill="white"/>
  </g>
  <defs>
    <clipPath id="clip0_62_978">
      <rect width="60" height="60" rx="30" fill="white"/>
    </clipPath>
  </defs>
</svg>